<svg width="16" height="16" viewBox="0 0 16 16" fill="none" xmlns="http://www.w3.org/2000/svg">
<path d="M15 3H1V13H15V3Z" fill="white"/>
<path fill-rule="evenodd" clip-rule="evenodd" d="M7 14H1C0.734784 14 0.48043 13.8946 0.292893 13.7071C0.105357 13.5196 0 13.2652 0 13V3C0 2.73478 0.105357 2.48043 0.292893 2.29289C0.48043 2.10536 0.734784 2 1 2H15C15.2652 2 15.5196 2.10536 15.7071 2.29289C15.8946 2.48043 16 2.73478 16 3V8H15V4.87C13.9407 6.10539 12.6906 7.16194 11.2978 8H10V7.5372C11.6474 6.79614 13.0837 5.31395 14.1587 4.20469C14.4708 3.88259 14.7525 3.59194 15 3.36V3H1V3.28C1.2595 3.52317 1.55653 3.83351 1.88687 4.17864C3.17109 5.52039 4.95857 7.38793 7 7.87822V8V8.90411C6.68074 8.84565 6.36631 8.76074 6.06 8.65L1.71 13H7V14ZM1 12.29L5.06 8.22C3.51162 7.34234 2.13588 6.19024 1 4.82V12.29Z" fill="#CC9823"/>
<path d="M16 9H10V10H16V9Z" fill="#798288"/>
<path d="M16 11H10V12H16V11Z" fill="#798288"/>
<path d="M16 13H10V14H16V13Z" fill="#798288"/>
<path d="M16 15H10V16H16V15Z" fill="#798288"/>
<path d="M9 9H8V10H9V9Z" fill="#798288"/>
<path d="M9 11H8V12H9V11Z" fill="#798288"/>
<path d="M9 13H8V14H9V13Z" fill="#798288"/>
<path d="M9 15H8V16H9V15Z" fill="#798288"/>
</svg>
