<svg width="16" height="16" viewBox="0 0 16 16" fill="none" xmlns="http://www.w3.org/2000/svg">
<g clip-path="url(#clip0_27262_2561)">
<path fill-rule="evenodd" clip-rule="evenodd" d="M9 12H13V2.5L11.5 1H5V3H1V15H9V12Z" fill="white"/>
<path d="M11 1L13 3H11V1ZM10 0V3C10.0008 3.26498 10.1064 3.51889 10.2937 3.70626C10.4811 3.89363 10.735 3.99923 11 4H14V2.6L11.4 0H10Z" fill="#798288"/>
<path d="M7 8H2V9H7V8Z" fill="#ADB1B2"/>
<path d="M7 10H2V11H7V10Z" fill="#ADB1B2"/>
<path d="M7 12H2V13H7V12Z" fill="#ADB1B2"/>
<path d="M7 3L9 5H7V3ZM6 2V5C6.00077 5.26498 6.10637 5.51889 6.29374 5.70626C6.48111 5.89363 6.73502 5.99923 7 6H10V4.6L7.4 2H6Z" fill="#798288"/>
<path d="M5 1H10.9375V0H5C4.73478 0 4.48043 0.105357 4.29289 0.292893C4.10536 0.48043 4 0.734784 4 1H5Z" fill="#798288"/>
<path fill-rule="evenodd" clip-rule="evenodd" d="M13 6V3H14V6H13Z" fill="#798288"/>
<path fill-rule="evenodd" clip-rule="evenodd" d="M1 15H7V16H1C0.734784 16 0.48043 15.8946 0.292893 15.7071C0.105357 15.5196 0 15.2652 0 15V3C0 2.73478 0.105357 2.48043 0.292893 2.29289C0.48043 2.10536 0.734784 2 1 2H6.9375V3H1V15Z" fill="#798288"/>
<path d="M15 9H9V15H15V9Z" fill="white"/>
<path d="M12.0349 14C11.9339 14.001 11.8357 13.9681 11.7571 13.9071L10.1871 12.6647C10.1377 12.6318 10.096 12.5895 10.0645 12.5403C10.033 12.4912 10.0125 12.4363 10.0042 12.3791C9.99587 12.3219 9.99997 12.2637 10.0162 12.2082C10.0324 12.1526 10.0605 12.1008 10.0986 12.0562C10.1366 12.0116 10.1839 11.975 10.2374 11.9488C10.2909 11.9226 10.3495 11.9073 10.4094 11.9039C10.4693 11.9006 10.5293 11.9092 10.5857 11.9292C10.642 11.9492 10.6934 11.9802 10.7366 12.0203L11.9443 12.9898L13.8116 10.4891C13.8821 10.4014 13.9859 10.3441 14.1003 10.33C14.2147 10.3158 14.3302 10.3459 14.4215 10.4137C14.5128 10.4814 14.5723 10.5812 14.5871 10.6912C14.6018 10.8012 14.5705 10.9122 14.5 11L12.3791 13.8374C12.3432 13.8812 12.2985 13.9176 12.2477 13.9445C12.1968 13.9715 12.1409 13.9883 12.0832 13.9942H12.0349V14Z" fill="#D65633"/>
<path fill-rule="evenodd" clip-rule="evenodd" d="M9 9H15V15H9V9ZM8 8V9V15C8 15.5523 8.44772 16 9 16H15C15.5523 16 16 15.5523 16 15V9V8C16 7.44772 15.5523 7 15 7V8H14V7H10V8H9V7C8.44772 7 8 7.44772 8 8Z" fill="#798288"/>
</g>
<defs>
<clipPath id="clip0_27262_2561">
<rect width="16" height="16" fill="white"/>
</clipPath>
</defs>
</svg>
