<svg width="32" height="32" viewBox="0 0 32 32" fill="none" xmlns="http://www.w3.org/2000/svg">
<path d="M27 23L21 29H5V2H27V23Z" fill="white"/>
<path d="M25 1C25 0.447715 24.5523 0 24 0C23.4477 0 23 0.447715 23 1V3C23 3.55228 23.4477 4 24 4C24.5523 4 25 3.55228 25 3V1Z" fill="#9DA2A5"/>
<path d="M9 1C9 0.447715 8.55228 0 8 0C7.44772 0 7 0.447715 7 1V3C7 3.55228 7.44772 4 8 4C8.55228 4 9 3.55228 9 3V1Z" fill="#9DA2A5"/>
<path d="M5 29V7H27V13.5L29 15.5V2C29 1.73478 28.8946 1.48043 28.7071 1.29289C28.5196 1.10536 28.2652 1 28 1H26V3C26 3.53043 25.7893 4.03914 25.4142 4.41421C25.0391 4.78929 24.5304 5 24 5C23.4696 5 22.9609 4.78929 22.5858 4.41421C22.2107 4.03914 22 3.53043 22 3V1H10V3C10 3.53043 9.78929 4.03914 9.41421 4.41421C9.03914 4.78929 8.53043 5 8 5C7.46957 5 6.96086 4.78929 6.58579 4.41421C6.21071 4.03914 6 3.53043 6 3V1H4C3.73478 1 3.48043 1.10536 3.29289 1.29289C3.10536 1.48043 3 1.73478 3 2V30C3 30.2652 3.10536 30.5196 3.29289 30.7071C3.48043 30.8946 3.73478 31 4 31H16V29H5Z" fill="#9DA2A5"/>
<g clip-path="url(#clip0_26058_2288)">
<path d="M20.5 27L19 25H22L20.5 27Z" fill="#576672"/>
<path d="M28.5 27L27 25H30L28.5 27Z" fill="#576672"/>
<path d="M21 25.5V24H28V25.5H29V24C29 23.7348 28.8946 23.4804 28.7071 23.2929C28.5196 23.1054 28.2652 23 28 23L21 23C20.7348 23 20.4804 23.1054 20.2929 23.2929C20.1054 23.4804 20 23.7348 20 24V25.5H21Z" fill="#576672"/>
<path d="M25 20H24V23H25V20Z" fill="#576672"/>
<path d="M31 28V31H26V28H31ZM31 27H26C25.7348 27 25.4804 27.1054 25.2929 27.2929C25.1054 27.4804 25 27.7348 25 28V31C25 31.2652 25.1054 31.5196 25.2929 31.7071C25.4804 31.8946 25.7348 32 26 32H31C31.2652 32 31.5196 31.8946 31.7071 31.7071C31.8946 31.5196 32 31.2652 32 31V28C32 27.7348 31.8946 27.4804 31.7071 27.2929C31.5196 27.1054 31.2652 27 31 27Z" fill="#798288"/>
<path d="M23 28V31H18V28H20.5H23ZM23 27H18C17.7348 27 17.4804 27.1054 17.2929 27.2929C17.1054 27.4804 17 27.7348 17 28V31C17 31.2652 17.1054 31.5196 17.2929 31.7071C17.4804 31.8946 17.7348 32 18 32H23C23.2652 32 23.5196 31.8946 23.7071 31.7071C23.8946 31.5196 24 31.2652 24 31V28C24 27.7348 23.8946 27.4804 23.7071 27.2929C23.5196 27.1054 23.2652 27 23 27Z" fill="#798288"/>
<path d="M24.5 13L20 17.5L24.5 22L29 17.5L24.5 13Z" fill="#D7853C"/>
<path d="M23 28H18V31H23V28Z" fill="#B5DDF5"/>
<path d="M31 28H26V31H31V28Z" fill="#BAD68A"/>
</g>
<defs>
<clipPath id="clip0_26058_2288">
<rect width="15" height="19" fill="white" transform="translate(17 13)"/>
</clipPath>
</defs>
</svg>
