<svg width="16" height="16" viewBox="0 0 16 16" fill="none" xmlns="http://www.w3.org/2000/svg">
<g clip-path="url(#clip0_26240_6009)">
<path d="M13.4202 8.01403C13.4179 7.77299 13.3986 7.53239 13.3624 7.29392L14.7407 6.24649C14.8439 6.1879 14.919 6.0921 14.9497 5.97998C14.9804 5.86786 14.9642 5.74852 14.9046 5.64796L13.5744 3.33801C13.514 3.23789 13.4153 3.16499 13.2997 3.13521C13.1842 3.10543 13.0612 3.12118 12.9575 3.17903L11.3189 3.83367C10.9277 3.53771 10.4963 3.2954 10.037 3.11356L9.80564 1.4676C9.82222 1.21609 9.60322 0.999505 9.35262 1H6.63447C6.38971 1.00457 6.27734 1.1385 6.19108 1.4676L5.95011 3.14162C5.49077 3.32346 5.0594 3.56577 4.66815 3.86172L3.02955 3.20708C2.92939 3.14672 2.80891 3.12663 2.69372 3.15108C2.57853 3.17553 2.47771 3.24259 2.41267 3.33801L1.05359 5.64796C1.02521 5.69943 1.00767 5.75587 1.00201 5.81399C0.996349 5.8721 1.00268 5.93073 1.02062 5.98645C1.03857 6.04217 1.06777 6.09386 1.10653 6.13851C1.14529 6.18315 1.19283 6.21986 1.24637 6.24649L2.62472 7.29392C2.59173 7.53261 2.57563 7.77321 2.57653 8.01403C2.57882 8.25506 2.59815 8.49566 2.63436 8.73414L1.24637 9.78156C1.14318 9.84016 1.06805 9.93596 1.03735 10.0481C1.00666 10.1602 1.02289 10.2795 1.08251 10.3801L2.41267 12.69C2.47306 12.7902 2.57179 12.8631 2.68735 12.8928C2.80291 12.9226 2.92591 12.9069 3.02955 12.849L4.66815 12.1944C5.0594 12.4903 5.49077 12.7327 5.95011 12.9145L6.19108 14.5605C6.19108 14.677 6.23881 14.7888 6.32377 14.8713C6.40873 14.9537 6.52396 15 6.64411 15H9.35262C9.47277 15 9.588 14.9537 9.67295 14.8713C9.75791 14.7888 9.80564 14.677 9.80564 14.5605L10.037 12.8584C14.1414 11.2335 13.3727 12.9987 13.4202 8.01403ZM7.99354 10.352C7.51695 10.352 7.05106 10.2149 6.65478 9.95801C6.25851 9.70111 5.94965 9.33596 5.76727 8.90875C5.58488 8.48153 5.53716 8.01144 5.63014 7.55791C5.72312 7.10438 5.95262 6.68778 6.28962 6.36081C6.62663 6.03383 7.056 5.81116 7.52343 5.72094C7.99087 5.63073 8.47538 5.67703 8.9157 5.85399C9.35601 6.03095 9.73236 6.33062 9.99714 6.7151C10.2619 7.09958 10.4032 7.55161 10.4032 8.01403C10.4032 8.63411 10.1494 9.22879 9.69746 9.66725C9.24555 10.1057 8.63264 10.352 7.99354 10.352Z" fill="white"/>
<path d="M14.5 6.5C14.9046 6.26416 15.0238 5.84907 14.9046 5.64796L13.5744 3.33801C13.4536 3.13777 13.1648 3.06333 12.9575 3.17903L11.3189 3.83367C10.9277 3.53771 10.4963 3.2954 10.037 3.11356L9.80562 1.4676C9.8222 1.21609 9.6032 0.999505 9.3526 1H6.63445C6.38969 1.00457 6.17539 1.23057 6.19106 1.4676L5.95009 3.14162C5.49075 3.32346 5.05938 3.56577 4.66813 3.86172L3.02953 3.20708C2.8292 3.08636 2.54273 3.14716 2.41265 3.33801L1.05357 5.64796C0.940026 5.85384 1.03219 6.13998 1.24635 6.24649L2.6247 7.29392C2.59171 7.53261 2.57561 7.77321 2.57651 8.01403C2.5788 8.25506 2.59812 8.49566 2.63434 8.73414L1.24635 9.78156C1.03997 9.89875 0.963249 10.179 1.08249 10.3801L2.41265 12.69C2.53343 12.8903 2.82225 12.9647 3.02953 12.849L4.66813 12.1944C5.05938 12.4903 5.49075 12.7327 5.95009 12.9145L6.19106 14.5605" stroke="#96A3B8"/>
<path fill-rule="evenodd" clip-rule="evenodd" d="M8.07011 9.85057C8.04467 9.85155 8.01915 9.85204 7.99357 9.85204C7.61256 9.85204 7.24129 9.74236 6.9268 9.53847C6.61247 9.33469 6.3698 9.04661 6.22714 8.71244C6.08455 8.37844 6.0475 8.01184 6.11998 7.65833C6.19248 7.3047 6.37183 6.97775 6.63783 6.71966C6.90398 6.46143 7.24489 6.28394 7.61821 6.21189C7.97959 6.14215 8.3536 6.17467 8.69534 6.30466L9.44546 5.55454C9.33519 5.49262 9.22054 5.43763 9.10218 5.39006C8.57237 5.17714 7.99021 5.12164 7.42871 5.23001C6.86715 5.33839 6.34933 5.60625 5.94148 6.00196C5.53347 6.39783 5.25381 6.90406 5.14035 7.45749C5.02687 8.01104 5.08526 8.58463 5.30744 9.10507C5.52955 9.62533 5.90461 10.0675 6.38282 10.3776C6.86087 10.6875 7.42139 10.852 7.99357 10.852C8.08551 10.852 8.17704 10.8478 8.26788 10.8394L8.07011 9.85057ZM10.8037 8.7504C10.8692 8.51254 10.9033 8.26517 10.9033 8.01404C10.9033 7.44931 10.7306 6.89856 10.409 6.43152C10.3639 6.36608 10.3162 6.30271 10.266 6.24152L10.8037 8.7504Z" fill="#96A3B8"/>
<path d="M9.84 11.74C9.82814 12.8591 9.67013 13.9718 9.37 15.05C10.7826 15.255 12.2174 15.255 13.63 15.05C13.3435 13.9718 13.1791 12.8649 13.14 11.75C13.14 11.09 12.93 10.17 11.38 10.21C9.59 10.26 9.84 11.74 9.84 11.74Z" fill="white"/>
<path d="M11.48 10.68C11.95 10.68 12.1 11.56 12.08 11.78C12.1316 12.7679 12.2756 13.7489 12.51 14.71C12.1 14.71 12.18 15.5 11.51 15.5C11.01 15.5 10.85 14.71 10.42 14.66C10.669 13.6791 10.8 12.672 10.81 11.66C11.01 11.66 10.97 10.66 11.41 10.66H11.49L11.48 10.68ZM11.49 10.19H11.39C9.59996 10.19 9.94996 10.8 9.94996 10.8C9.9542 12.0794 9.78944 13.3538 9.45996 14.59C10.13 14.71 10.74 15.19 11.37 15.19C12.1092 15.192 12.8477 15.1419 13.58 15.04C13.228 13.8083 13.0629 12.5307 13.09 11.25C13.09 10.6 12.95 10.19 11.49 10.19V10.19Z" fill="#8D9599"/>
<path d="M9.58002 8.45002C9.4421 9.60416 9.69943 10.771 10.31 11.76C10.5869 12.04 10.9572 12.208 11.3502 12.232C11.7432 12.256 12.1312 12.1342 12.44 11.89C12.44 11.89 13.27 11.39 13.44 8.44002C13.4412 8.18841 13.388 7.93951 13.2843 7.7103C13.1805 7.48108 13.0285 7.27694 12.8387 7.11179C12.6489 6.94664 12.4256 6.82437 12.1843 6.75331C11.9429 6.68225 11.6891 6.66407 11.44 6.70002C11.2025 6.69067 10.9654 6.72873 10.7427 6.81199C10.52 6.89525 10.3162 7.02204 10.143 7.18495C9.96987 7.34786 9.83091 7.54364 9.73424 7.76084C9.63758 7.97805 9.58515 8.21233 9.58002 8.45002V8.45002Z" fill="white"/>
<path d="M11.59 6H11.5C9.66 6.11 9.06 7.19 9 7.93V8.12C9 10.45 9.41 13 11.5 13C13.59 13 14 10.6 14 7.94C14 7.13 13.34 6 11.59 6ZM11.59 12C11.25 12 9.94 12.13 10.01 8.6C10.111 8.42462 10.2548 8.27763 10.4279 8.17273C10.601 8.06782 10.7978 8.0084 11 8C11.6636 8.091 12.3364 8.091 13 8C13.08 9.34 13.12 12.14 11.57 12H11.59Z" fill="#8D9599"/>
<path d="M16 16H7V14.5C7.00899 14.3507 7.05717 14.2065 7.13969 14.0819C7.22221 13.9572 7.33614 13.8565 7.47 13.79L9.8 13C9.8 13 10.32 15 11.5 15C12.68 15 13.12 12.91 13.12 12.91L15.53 13.79C15.6558 13.8664 15.7631 13.9697 15.8443 14.0925C15.9256 14.2152 15.9787 14.3543 16 14.5V16Z" fill="#407FB9"/>
</g>
<defs>
<clipPath id="clip0_26240_6009">
<rect width="16" height="16" fill="white"/>
</clipPath>
</defs>
</svg>
